<svg width="265" height="106" viewBox="0 0 265 106" fill="none" xmlns="http://www.w3.org/2000/svg">
<path d="M28.68 33.16C38.96 33.16 44.1 37.2 44.1 45.28C44.1 49.4 42.76 52.64 40.08 55C37.44 57.32 33.34 58.48 27.78 58.48H21.48V76H18V33.16H28.68ZM28.32 36.22H21.48V55.42H27.42C31.54 55.42 34.74 54.7 37.02 53.26C39.34 51.82 40.5 49.22 40.5 45.46C40.5 42.26 39.5 39.92 37.5 38.44C35.54 36.96 32.48 36.22 28.32 36.22ZM56.032 76H52.612V30.4H56.032V76ZM77.8959 43.54C81.4959 43.54 84.1759 44.42 85.9359 46.18C87.6959 47.94 88.5759 50.72 88.5759 54.52V76H85.9959L85.3959 70.6H85.2159C84.0559 72.4 82.6359 73.86 80.9559 74.98C79.3159 76.06 77.0159 76.6 74.0559 76.6C70.9759 76.6 68.5559 75.84 66.7959 74.32C65.0359 72.76 64.1559 70.54 64.1559 67.66C64.1559 64.46 65.4559 62.04 68.0559 60.4C70.6559 58.72 74.4359 57.78 79.3959 57.58L85.2159 57.28V55.06C85.2159 51.94 84.5759 49.72 83.2959 48.4C82.0559 47.08 80.2159 46.42 77.7759 46.42C76.1359 46.42 74.5559 46.64 73.0359 47.08C71.5159 47.52 69.9959 48.1 68.4759 48.82L67.3959 46.06C68.9159 45.34 70.5559 44.74 72.3159 44.26C74.1159 43.78 75.9759 43.54 77.8959 43.54ZM85.2159 59.86L79.8159 60.1C75.7359 60.3 72.6959 61.02 70.6959 62.26C68.6959 63.46 67.6959 65.26 67.6959 67.66C67.6959 69.66 68.3159 71.18 69.5559 72.22C70.7959 73.22 72.4959 73.72 74.6559 73.72C77.9759 73.72 80.5559 72.78 82.3959 70.9C84.2359 68.98 85.1759 66.34 85.2159 62.98V59.86ZM107.784 73.72C108.664 73.72 109.504 73.66 110.304 73.54C111.104 73.38 111.804 73.2 112.404 73V75.76C111.804 75.96 111.064 76.14 110.184 76.3C109.304 76.5 108.364 76.6 107.364 76.6C104.684 76.6 102.624 75.86 101.184 74.38C99.7439 72.9 99.0239 70.48 99.0239 67.12V46.84H94.2839V44.92L99.0239 43.78L100.224 36.46H102.444V44.08H112.224V46.84H102.444V66.94C102.444 71.46 104.224 73.72 107.784 73.72ZM120.915 32.26C122.475 32.26 123.255 33.12 123.255 34.84C123.255 36.6 122.475 37.48 120.915 37.48C119.355 37.48 118.575 36.6 118.575 34.84C118.575 33.12 119.355 32.26 120.915 32.26ZM122.595 44.08V76H119.175V44.08H122.595ZM147.458 43.48C151.098 43.48 153.878 44.42 155.798 46.3C157.718 48.18 158.678 51.12 158.678 55.12V76H155.318V55.36C155.318 52.32 154.618 50.08 153.218 48.64C151.818 47.16 149.778 46.42 147.098 46.42C140.098 46.42 136.598 50.48 136.598 58.6V76H133.178V44.08H135.938L136.418 49.6H136.658C137.498 47.84 138.838 46.38 140.678 45.22C142.518 44.06 144.778 43.48 147.458 43.48ZM194.061 44.08V76H191.301L190.761 70.54H190.581C189.701 72.3 188.341 73.76 186.501 74.92C184.701 76.04 182.441 76.6 179.721 76.6C172.241 76.6 168.501 72.72 168.501 64.96V44.08H171.921V64.66C171.921 67.74 172.601 70.02 173.961 71.5C175.361 72.94 177.421 73.66 180.141 73.66C187.141 73.66 190.641 69.6 190.641 61.48V44.08H194.061ZM238.023 43.48C241.183 43.48 243.643 44.38 245.403 46.18C247.203 47.98 248.103 50.82 248.103 54.7V76H244.743V54.82C244.743 51.98 244.083 49.88 242.763 48.52C241.483 47.12 239.743 46.42 237.543 46.42C234.503 46.42 232.163 47.32 230.523 49.12C228.883 50.88 228.063 53.62 228.063 57.34V76H224.703V54.82C224.703 51.98 224.043 49.88 222.723 48.52C221.443 47.12 219.703 46.42 217.503 46.42C214.463 46.42 212.123 47.36 210.483 49.24C208.883 51.12 208.083 54 208.083 57.88V76H204.663V44.08H207.423L207.903 49.12H208.143C208.943 47.56 210.143 46.24 211.743 45.16C213.383 44.04 215.463 43.48 217.983 43.48C220.303 43.48 222.263 43.98 223.863 44.98C225.463 45.98 226.603 47.46 227.283 49.42H227.463C228.383 47.54 229.743 46.08 231.543 45.04C233.383 44 235.543 43.48 238.023 43.48Z" fill="white"/>
<rect x="1.5" y="1.5" width="262" height="103" stroke="white" stroke-width="3"/>
</svg>
